<?xml version="1.0" encoding="UTF-8" standalone="no"?>
<!DOCTYPE svg PUBLIC "-//W3C//DTD SVG 1.1//EN" "http://www.w3.org/Graphics/SVG/1.1/DTD/svg11.dtd">
<svg width="100%" height="100%" viewBox="0 0 220 220" version="1.1" xmlns="http://www.w3.org/2000/svg" xmlns:xlink="http://www.w3.org/1999/xlink" xml:space="preserve" xmlns:serif="http://www.serif.com/" style="fill-rule:evenodd;clip-rule:evenodd;stroke-linejoin:round;stroke-miterlimit:2;">
    <g transform="matrix(1,0,0,1,-42.6715,-16.868)">
        <g id="Layer_3">
            <g>
                <path d="M171.764,103.418C171.764,92.91 169.457,85.478 151.005,85.478C133.834,85.478 117.175,91.117 114.356,111.875C106.155,102.905 102.823,94.96 102.823,88.041C102.823,70.357 125.633,59.85 151.005,59.85C187.654,59.85 205.082,76.765 205.082,104.956L205.082,135.71C205.082,140.835 203.8,161.595 167.664,165.695C167.664,165.695 172.534,158.007 172.534,141.861L172.534,129.047C165.358,142.886 128.452,134.429 128.452,155.957C128.452,168.002 143.829,174.666 164.845,174.666C197.393,174.666 222.253,166.208 222.253,131.097L222.253,91.885C222.253,67.281 208.414,45.497 171.508,45.497L133.321,45.497C96.928,45.497 83.089,67.281 83.089,91.885L83.089,166.721C83.089,191.581 94.11,211.827 113.075,211.827C124.351,211.827 133.065,207.726 133.065,207.726C133.065,207.726 130.758,232.586 99.235,232.586C69.762,232.586 49.772,203.113 49.772,170.052L49.772,88.553C49.772,50.879 81.039,21.15 133.578,21.15L171.765,21.15C224.048,21.15 255.571,50.879 255.571,88.553L255.571,134.428C255.571,184.66 212.515,197.987 164.077,197.987C128.709,197.987 96.417,188.505 96.417,156.469C96.416,111.875 154.081,124.689 171.764,103.418Z" style="fill:rgb(229,16,16);fill-rule:nonzero;"/>
            </g>
        </g>
    </g>
</svg>
