<?xml version="1.0" encoding="UTF-8" standalone="no"?>
<!DOCTYPE svg PUBLIC "-//W3C//DTD SVG 1.1//EN" "http://www.w3.org/Graphics/SVG/1.1/DTD/svg11.dtd">
<svg width="100%" height="100%" viewBox="0 0 214 38" version="1.1" xmlns="http://www.w3.org/2000/svg" xmlns:xlink="http://www.w3.org/1999/xlink" xml:space="preserve" xmlns:serif="http://www.serif.com/" style="fill-rule:evenodd;clip-rule:evenodd;stroke-linejoin:round;stroke-miterlimit:2;">
    <g id="Layer_1" transform="matrix(1,0,0,1,-45.594,-109.302)">
        <g id="g5">
            <path id="path7" d="M87.348,114.674C88.176,114.674 91.127,114.746 91.127,117.878L91.127,119.246L98.542,119.246C98.542,119.246 98.506,122.27 96.311,122.27L91.127,122.27L91.127,130.189C91.127,132.672 91.919,134.22 94.69,134.22C96.994,134.22 99.118,133.104 99.118,130.441C99.946,131.485 100.378,132.42 100.378,133.357C100.378,135.697 97.858,137.245 94.223,137.245C89.939,137.245 87.348,135.013 87.348,131.198L87.348,114.674Z" style="fill:rgb(232,232,232);fill-rule:nonzero;"/>
            <path id="path9" d="M117.514,133.176C117.514,135.732 114.347,137.244 110.495,137.244C105.492,137.244 102.468,134.976 102.468,131.197L102.468,124.178C102.468,120.398 105.095,118.131 109.955,118.131C114.815,118.131 117.298,120.399 117.298,123.819C117.298,126.806 115.39,129.434 109.919,129.434C108.731,129.434 107.219,129.218 106.248,128.678L106.248,130.657C106.248,132.997 107.472,134.185 110.496,134.185C113.952,134.185 116.471,132.781 116.507,130.441C117.19,131.448 117.514,132.348 117.514,133.176ZM106.247,125.869C106.427,125.941 108.155,126.373 109.451,126.373C112.474,126.373 113.518,125.437 113.518,123.817C113.518,122.161 112.546,121.009 109.883,121.009C107.003,121.009 106.247,122.377 106.247,124.717L106.247,125.869Z" style="fill:rgb(232,232,232);fill-rule:nonzero;"/>
            <path id="path11" d="M127.954,118.058C132.058,118.058 134.901,119.174 134.901,121.621C134.901,122.485 134.541,123.529 133.677,124.717C133.677,122.377 131.446,121.189 128.134,121.189C125.29,121.189 124.246,121.981 124.246,123.781C124.246,127.56 135.801,123.097 135.801,131.592C135.801,135.048 133.245,137.243 127.954,137.243C123.706,137.243 120.611,136.019 120.611,133.499C120.611,132.599 121.007,131.591 122.015,130.367C122.087,133.211 124.823,134.183 127.954,134.183C130.222,134.183 131.95,133.283 131.95,131.411C131.95,126.911 120.395,131.591 120.395,123.888C120.395,120.038 123.023,118.058 127.954,118.058Z" style="fill:rgb(232,232,232);fill-rule:nonzero;"/>
            <path id="path13" d="M139.403,114.674C140.231,114.674 143.182,114.746 143.182,117.878L143.182,119.246L150.597,119.246C150.597,119.246 150.561,122.27 148.366,122.27L143.182,122.27L143.182,130.189C143.182,132.672 143.974,134.22 146.745,134.22C149.049,134.22 151.173,133.104 151.173,130.441C152.001,131.485 152.433,132.42 152.433,133.357C152.433,135.697 149.913,137.245 146.278,137.245C141.994,137.245 139.403,135.013 139.403,131.198L139.403,114.674Z" style="fill:rgb(232,232,232);fill-rule:nonzero;"/>
            <path id="path15" d="M176.157,109.671C176.373,109.671 179.937,109.635 179.937,112.083L179.937,137.136C179.073,136.74 178.065,136.632 177.273,136.632C175.581,136.632 173.889,137.244 172.233,137.244C167.374,137.244 164.602,135.084 164.602,131.268L164.602,124.069C164.602,120.361 167.733,118.13 171.333,118.13C175.004,118.13 176.48,119.822 176.48,119.822C176.48,119.822 176.156,118.814 176.156,117.122L176.156,109.671L176.157,109.671ZM176.157,124.249C176.157,122.341 173.961,121.009 171.802,121.009C169.823,121.009 168.383,122.089 168.383,124.609L168.383,130.729C168.383,133.176 169.319,134.364 172.667,134.364C174.827,134.364 176.158,133.716 176.158,133.716L176.158,124.249L176.157,124.249Z" style="fill:rgb(232,232,232);fill-rule:nonzero;"/>
            <path id="path17" d="M199.304,133.176C199.304,135.732 196.137,137.244 192.285,137.244C187.282,137.244 184.258,134.976 184.258,131.197L184.258,124.178C184.258,120.398 186.885,118.131 191.745,118.131C196.605,118.131 199.088,120.399 199.088,123.819C199.088,126.806 197.18,129.434 191.709,129.434C190.521,129.434 189.009,129.218 188.038,128.678L188.038,130.657C188.038,132.997 189.262,134.185 192.286,134.185C195.742,134.185 198.261,132.781 198.297,130.441C198.98,131.448 199.304,132.348 199.304,133.176ZM188.038,125.869C188.218,125.941 189.946,126.373 191.242,126.373C194.265,126.373 195.309,125.437 195.309,123.817C195.309,122.161 194.337,121.009 191.674,121.009C188.794,121.009 188.038,122.377 188.038,124.717L188.038,125.869Z" style="fill:rgb(232,232,232);fill-rule:nonzero;"/>
            <path id="path19" d="M217.771,133.212C217.771,135.804 214.567,137.244 210.788,137.244C205.929,137.244 202.905,135.012 202.905,131.197L202.905,124.178C202.905,120.398 205.821,118.131 210.68,118.131C213.703,118.131 217.231,119.247 217.231,122.054C217.231,122.954 216.871,123.962 216.043,125.15C216.043,122.415 213.631,121.154 211.22,121.154C208.232,121.154 206.684,122.162 206.684,124.934L206.684,130.441C206.684,132.997 208.052,134.22 211.147,134.22C214.279,134.22 216.762,132.78 216.762,130.476C217.484,131.52 217.771,132.42 217.771,133.212Z" style="fill:rgb(232,232,232);fill-rule:nonzero;"/>
            <path id="path21" d="M237.248,136.704C237.248,136.704 235.772,137.064 235.16,137.064C230.624,137.064 233.396,129.001 225.153,128.029L225.153,137.064C225.153,137.064 221.374,137.064 221.374,135.012L221.374,109.599C221.374,109.599 225.153,109.599 225.153,111.651L225.153,125.077C227.853,124.897 229.149,123.277 230.912,119.93C231.38,119.066 232.352,118.31 234.152,118.31C234.728,118.31 235.376,118.418 235.952,118.598C234.224,121.01 232.604,125.509 229.257,126.373C235.052,128.029 235.412,133.536 237.248,136.704Z" style="fill:rgb(232,232,232);fill-rule:nonzero;"/>
            <path id="path23" d="M248.336,143.687C247.976,144.011 247.148,144.911 245.816,144.911C242.108,144.911 238.869,136.992 238.869,127.489C238.869,117.986 242.109,110.139 245.816,110.139C247.148,110.139 247.976,111.039 248.336,111.363C244.917,111.723 242.757,118.994 242.757,127.417C242.757,135.983 244.917,143.327 248.336,143.687Z" style="fill:rgb(232,232,232);fill-rule:nonzero;"/>
            <path id="path25" d="M249.417,111.363C249.777,111.039 250.605,110.139 251.937,110.139C255.645,110.139 258.884,117.986 258.884,127.489C258.884,136.992 255.644,144.911 251.937,144.911C250.605,144.911 249.777,144.011 249.417,143.687C252.836,143.327 254.996,135.984 254.996,127.417C254.997,118.994 252.837,111.723 249.417,111.363Z" style="fill:rgb(232,232,232);fill-rule:nonzero;"/>
        </g>
        <g id="g27">
            <path id="path29" d="M67.013,123.747C67.013,121.902 66.608,120.597 63.368,120.597C60.353,120.597 57.428,121.587 56.933,125.232C55.493,123.657 54.908,122.262 54.908,121.047C54.908,117.942 58.913,116.097 63.367,116.097C69.802,116.097 72.862,119.067 72.862,124.016L72.862,129.416C72.862,130.316 72.637,133.961 66.292,134.681C66.292,134.681 67.147,133.331 67.147,130.496L67.147,128.246C65.887,130.676 59.407,129.191 59.407,132.971C59.407,135.086 62.107,136.256 65.797,136.256C71.511,136.256 75.877,134.771 75.877,128.606L75.877,121.721C75.877,117.401 73.447,113.576 66.967,113.576L60.262,113.576C53.872,113.576 51.443,117.401 51.443,121.721L51.443,134.861C51.443,139.226 53.378,142.78 56.708,142.78C58.688,142.78 60.218,142.06 60.218,142.06C60.218,142.06 59.813,146.425 54.279,146.425C49.104,146.425 45.594,141.25 45.594,135.446L45.594,121.136C45.594,114.521 51.084,109.302 60.308,109.302L67.013,109.302C76.193,109.302 81.727,114.522 81.727,121.136L81.727,129.191C81.727,138.011 74.167,140.351 65.663,140.351C59.453,140.351 53.784,138.686 53.784,133.061C53.784,125.231 63.908,127.481 67.013,123.747Z" style="fill:rgb(229,16,16);fill-rule:nonzero;"/>
        </g>
    </g>
</svg>
