<?xml version="1.0" standalone="no"?>
<!DOCTYPE svg PUBLIC "-//W3C//DTD SVG 20010904//EN"
 "http://www.w3.org/TR/2001/REC-SVG-20010904/DTD/svg10.dtd">
<svg version="1.0" xmlns="http://www.w3.org/2000/svg"
 width="700.000000pt" height="700.000000pt" viewBox="0 0 700.000000 700.000000"
 preserveAspectRatio="xMidYMid meet">
<metadata>
Created by potrace 1.14, written by Peter Selinger 2001-2017
</metadata>
<g transform="translate(0.000000,700.000000) scale(0.100000,-0.100000)"
fill="#000000" stroke="none">
<path d="M2500 6844 c-725 -71 -1309 -326 -1720 -750 -283 -292 -456 -631
-527 -1034 -17 -99 -18 -192 -18 -1655 0 -1454 1 -1557 18 -1658 143 -846 617
-1437 1272 -1583 97 -21 361 -30 479 -15 382 48 654 231 796 534 38 80 79 221
69 232 -3 2 -45 -9 -94 -26 -153 -54 -293 -79 -465 -85 -171 -7 -248 4 -360
49 -101 41 -170 88 -260 177 -192 190 -309 446 -377 825 -17 93 -18 202 -18
1555 l0 1455 23 105 c45 206 114 375 210 518 178 265 455 450 802 536 239 59
242 59 1065 63 816 5 957 0 1171 -42 578 -112 961 -458 1094 -988 49 -198 52
-255 48 -1132 -4 -900 -3 -881 -74 -1095 -161 -482 -549 -739 -1255 -827 -196
-24 -701 -24 -859 0 -360 54 -601 169 -720 343 -109 157 -87 398 48 530 115
113 244 163 682 259 202 44 286 69 370 106 97 44 157 87 197 138 l35 46 -5
-330 c-5 -349 -11 -417 -62 -602 -13 -51 -38 -122 -55 -159 l-30 -67 60 6 c34
4 105 16 159 27 525 107 838 344 943 715 23 79 23 85 23 725 0 621 -1 650 -22
765 -51 282 -153 493 -322 669 -223 232 -529 370 -956 433 -173 25 -643 25
-805 0 -619 -96 -1033 -361 -1126 -718 -24 -90 -21 -242 5 -344 39 -149 160
-359 303 -525 l37 -42 6 28 c47 231 106 357 224 486 149 162 354 259 638 304
160 25 447 23 574 -3 264 -56 361 -174 384 -463 l7 -86 -65 -60 c-175 -165
-383 -250 -977 -404 -501 -129 -729 -214 -924 -344 -73 -49 -195 -162 -244
-226 -69 -90 -132 -232 -164 -373 -31 -132 -31 -421 -1 -553 50 -214 133 -365
287 -520 269 -271 669 -427 1286 -500 183 -21 730 -30 970 -15 636 40 1114
149 1504 342 495 246 801 616 925 1119 60 242 61 271 61 1263 0 568 -4 934
-10 987 -90 722 -539 1305 -1256 1629 -310 140 -663 226 -1059 260 -184 16
-1775 12 -1945 -5z"/>
</g>
</svg>
